<svg xmlns="http://www.w3.org/2000/svg"  viewBox="0 0 100 100" width="100px" height="100px"><circle cx="50" cy="50" r="35" fill="#78a2d2"/><path fill="#1f212b" d="M50,86c-19.851,0-36-16.149-36-36s16.149-36,36-36s36,16.149,36,36S69.851,86,50,86z M50,16	c-18.748,0-34,15.252-34,34s15.252,34,34,34s34-15.252,34-34S68.748,16,50,16z"/><path fill="#1f212b" d="M65.5,24.227c-0.087,0-0.174-0.022-0.254-0.069c-0.638-0.376-1.3-0.734-1.969-1.066	c-0.247-0.123-0.348-0.423-0.226-0.671c0.124-0.248,0.426-0.347,0.671-0.226c0.689,0.343,1.373,0.714,2.031,1.102	c0.238,0.141,0.317,0.447,0.177,0.685C65.838,24.139,65.671,24.227,65.5,24.227z"/><path fill="#1f212b" d="M68.5,26.249c-0.106,0-0.213-0.033-0.304-0.103c-0.323-0.247-0.651-0.487-0.983-0.721	c-0.227-0.159-0.281-0.471-0.122-0.696c0.159-0.227,0.473-0.28,0.696-0.122c0.344,0.241,0.684,0.489,1.017,0.744	c0.22,0.168,0.261,0.481,0.094,0.701C68.799,26.182,68.65,26.249,68.5,26.249z"/><path fill="#1f212b" d="M50,81c-17.094,0-31-13.906-31-31s13.906-31,31-31c3.665,0,7.256,0.635,10.672,1.887	c0.26,0.096,0.393,0.383,0.298,0.642c-0.095,0.261-0.384,0.392-0.642,0.298C57.022,20.614,53.548,20,50,20	c-16.542,0-30,13.458-30,30s13.458,30,30,30s30-13.458,30-30c0-8.439-3.585-16.535-9.836-22.213	c-0.205-0.186-0.22-0.502-0.034-0.706s0.503-0.22,0.706-0.034C77.296,32.914,81,41.279,81,50C81,67.094,67.094,81,50,81z"/><path fill="#fefdef" d="M53.5,37.5h5v-7c0,0-5.25,0-7,0c-3.866,0-7,3.134-7,7v6h-4v7h4v19h7v-19h6l1-7h-7v-4	C51.5,38.395,52.396,37.5,53.5,37.5z"/><path fill="#1f212b" d="M51.5,70h-7c-0.276,0-0.5-0.224-0.5-0.5V51h-3.5c-0.276,0-0.5-0.224-0.5-0.5v-7	c0-0.276,0.224-0.5,0.5-0.5H44v-5.5c0-4.136,3.364-7.5,7.5-7.5h7c0.276,0,0.5,0.224,0.5,0.5v7c0,0.276-0.224,0.5-0.5,0.5h-5	c-0.827,0-1.5,0.673-1.5,1.5V43h6.5c0.145,0,0.283,0.063,0.378,0.173c0.095,0.109,0.138,0.254,0.117,0.397l-1,7	C57.96,50.817,57.749,51,57.5,51H52v18.5C52,69.776,51.776,70,51.5,70z M45,69h6V50.5c0-0.276,0.224-0.5,0.5-0.5h5.566l0.857-6H51.5	c-0.276,0-0.5-0.224-0.5-0.5v-4c0-1.379,1.121-2.5,2.5-2.5H58v-6h-6.5c-3.584,0-6.5,2.916-6.5,6.5v6c0,0.276-0.224,0.5-0.5,0.5H41v6	h3.5c0.276,0,0.5,0.224,0.5,0.5V69z"/></svg>